<!--?xml version="1.0" encoding="utf-8"?-->
<!-- Generator: Adobe Illustrator 18.1.1, SVG Export Plug-In . SVG Version: 6.00 Build 0)  -->

<svg version="1.1" id="_x32_" xmlns="http://www.w3.org/2000/svg" xmlns:xlink="http://www.w3.org/1999/xlink" x="0px" y="0px" viewBox="0 0 512 512" style="width: 32px; height: 32px; opacity: 1;" xml:space="preserve">
<style type="text/css">
	.st0{fill:#4B4B4B;}
</style>
<g>
	<path class="st0" d="M503.325,98.992c-6.843-7.684-16.358-11.627-25.822-11.567c-8.086-0.06-16.372,2.893-22.868,8.674
		l-0.133,0.141l-38.571,36.199c-14.848-22.934-34.228-43.436-57.764-60.323c-39.881-28.641-86.004-42.448-131.672-42.448
		c-70.434,0-139.892,32.851-184.049,94.424C13.806,164.039,0,210.175,0,255.83c0,70.38,32.864,139.831,94.424,184.056
		c39.962,28.641,86.084,42.447,131.752,42.447c70.367,0,139.824-32.858,184.036-94.424c28.654-39.948,42.447-86.077,42.38-131.745
		c0-20.696-2.82-41.264-8.406-61.172l56.12-47.178l0.133-0.134c7.685-6.762,11.628-16.292,11.561-25.821
		C511.999,113.78,509.112,105.494,503.325,98.992z M394.187,376.408c-40.349,56.246-103.686,86.144-168.012,86.211
		c-41.725-0.066-83.785-12.616-120.244-38.772C49.678,383.505,19.713,320.162,19.713,255.83c0-41.719,12.55-83.705,38.772-120.238
		c40.348-56.246,103.686-86.144,168.011-86.211c41.726,0.067,83.718,12.617,120.245,38.772
		c22.48,16.158,40.803,35.939,54.609,58.018l-34.107,32.002c-11.174-20.374-26.998-38.571-47.112-52.965
		c-28.387-20.369-61.172-30.225-93.635-30.225c-4.263,0-8.54,0.2-12.804,0.528c-24.578,1.972-48.635,9.53-70.112,22.34
		c-18.337,10.972-34.829,25.821-48.034,44.351c-10.706,14.916-18.537,31.013-23.522,47.706c-6.642,22.273-8.287,45.535-5.132,68.142
		c2.432,17.668,7.752,34.889,15.904,50.92c11.306,22.273,27.986,42.246,49.744,57.824c28.388,20.368,61.172,30.225,93.635,30.225
		c50.132,0,99.543-23.328,130.95-67.22c23.135-32.196,32.584-69.978,29.698-106.645l40.603-34.101
		c3.622,15.377,5.453,31.214,5.453,47.112C432.878,297.889,420.329,339.942,394.187,376.408z M298.974,287.304
		c5.119-7.157,15.116-8.8,22.28-3.675c7.163,5.132,8.807,15.116,3.675,22.273c-5.132,7.171-15.116,8.814-22.28,3.682
		C295.5,304.458,293.856,294.475,298.974,287.304z M288.403,238.094c-3.689-0.066-6.642-3.087-6.576-6.769l0.321-20.502
		c0.067-3.675,3.1-6.636,6.776-6.569l20.502,0.328c3.675,0.073,6.562,3.094,6.562,6.769l-0.321,20.436
		c-0.066,3.682-3.101,6.636-6.776,6.575L288.403,238.094z M223.342,337.25c2.566-0.922,5.452,0.327,6.442,2.886l5.386,14.328
		c0.989,2.559-0.321,5.453-2.887,6.375l-14.327,5.453c-2.566,0.916-5.387-0.328-6.376-2.894l-5.386-14.32
		c-0.989-2.566,0.334-5.453,2.887-6.375L223.342,337.25z M211.915,282.118c3.81-5.319,11.174-6.502,16.426-2.692
		c5.253,3.742,6.442,11.099,2.7,16.358c-3.823,5.259-11.107,6.442-16.372,2.693C209.349,294.668,208.173,287.378,211.915,282.118z
		 M234.782,169.104c-23.202,32.39-107.762,136.67-121.621,175.769c-5.787-7.297-10.852-15.182-15.116-23.662
		c-7.23-14.254-12.028-29.563-14.26-45.534c-2.833-20.562-1.323-41.064,4.665-60.911c4.531-15.176,11.56-29.57,20.956-42.641
		c11.574-16.165,26.021-29.503,42.915-39.62c18.925-11.3,40.602-18.197,62.748-19.974c3.742-0.267,7.618-0.468,11.427-0.468
		c16.76,0,33.052,3.027,48.555,8.613C266.056,127.639,251.662,145.642,234.782,169.104z M119.336,350.781l-0.601,0.788
		c-0.067-0.06-0.067-0.06-0.134-0.127C118.801,351.242,119.069,350.982,119.336,350.781z M487.554,132.765
		c-0.067,0.067-0.133,0.127-0.2,0.2l-49.811,41.859l-16.092,13.465l-38.117,32.063l-26.008,21.885l-0.066,0.06
		c-0.722,0.655-1.323,1.056-1.644,1.256c-0.267-0.14-0.856-0.461-1.644-1.116c-1.056-0.862-2.432-2.305-4.076-4.15
		c-2.232-2.425-4.144-4.925-5.252-6.896c-1.257-1.971-1.51-3.348-1.444-3.482v-0.066l0.655-0.655l0.12-0.134l0.08-0.066
		l32.062-30.092l35.084-32.985l14.982-14.067l41.525-39.026l0.201-0.134c2.753-2.432,6.174-3.548,9.596-3.548
		c4.13,0,8.14,1.644,11.107,4.925c2.499,2.833,3.675,6.308,3.675,9.796C492.286,125.936,490.708,129.811,487.554,132.765z" style="fill: rgb(167, 139, 250);"></path>
</g>
</svg>
