<!--?xml version="1.0" encoding="utf-8"?-->
<!-- Generator: Adobe Illustrator 18.1.1, SVG Export Plug-In . SVG Version: 6.00 Build 0)  -->

<svg version="1.1" id="_x32_" xmlns="http://www.w3.org/2000/svg" xmlns:xlink="http://www.w3.org/1999/xlink" x="0px" y="0px" viewBox="0 0 512 512" style="width: 32px; height: 32px; opacity: 1;" xml:space="preserve">
<style type="text/css">
	.st0{fill:#4B4B4B;}
</style>
<g>
	<path class="st0" d="M511.628,221.638c-3.082-28.334-16.909-54.457-42.367-71.738c-83.741-56.824-149.53-8.981-203.356-20.933
		c-53.836-11.969-105.512-44.336-137.568-53.836C59.458,54.725-7.219,110.469,0.639,181.128v46.21
		c-2.142,18.792,0.993,39.284,11.063,60.123c48.852,101.203,241.354,163.001,361.858,152.516
		c85.719-7.444,134.278-69.484,138.441-128.915C512,311.062,511.871,220.714,511.628,221.638z M482.207,258.306
		c-9.845,37.799-44.173,80.27-110.979,86.082c-8.014,0.7-16.573,1.053-25.407,1.053c-57.402,0-126.446-14.785-184.703-39.544
		c-62.817-26.702-107.274-61.824-125.176-98.914c-12.694-26.288-12.056-52.93,1.805-75.003
		c13.239-21.088,36.832-34.189,61.557-34.189c7.133,0,14.327,1.054,21.382,3.144c10.657,3.16,25.839,10.208,41.919,17.677
		c27.557,12.79,61.84,28.714,97.455,36.624c8.022,1.779,16.425,2.643,25.7,2.643c15.173,0,30.597-2.384,45.52-4.707
		c15.363-2.374,31.254-4.836,47.324-4.836c27.574,0,51.582,7.565,75.537,23.827C485.782,193.632,489.383,230.74,482.207,258.306z" style="fill: rgb(217, 119, 6);"></path>
	<path class="st0" d="M285.759,185.394c-11.494,0-22.021-1.096-32.185-3.36c-4.214-0.933-8.377-1.977-12.514-3.092l-83.966,89.924
		c5.104,2.426,10.311,4.82,15.726,7.116c11.34,4.819,23.118,9.206,35.131,13.179l97.852-104.796
		C299.214,184.997,292.504,185.394,285.759,185.394z" style="fill: rgb(217, 119, 6);"></path>
	<path class="st0" d="M437.758,194.815L327.772,312.607c6.123,0.337,12.159,0.527,18.049,0.527c7.953,0,15.631-0.311,22.816-0.933
		c64.561-5.622,81.099-50.278,84.622-63.828C455.488,239.842,460.884,210.895,437.758,194.815z" style="fill: rgb(217, 119, 6);"></path>
	<path class="st0" d="M163.364,149.503l-72.187,77.308c11.373,10.156,25.295,20,41.365,29.241l80.296-86.004
		C195.135,163.709,178.485,156.429,163.364,149.503z" style="fill: rgb(217, 119, 6);"></path>
	<path class="st0" d="M378.602,175.842c-10.034,0-20.242,1.166-30.838,2.695L236.509,297.694
		c19.275,5.121,38.766,9.059,57.765,11.676l119.001-127.456C402.308,177.829,391.047,175.842,378.602,175.842z" style="fill: rgb(217, 119, 6);"></path>
	<path class="st0" d="M112.197,127.223c-4.301-1.278-8.645-1.926-12.893-1.926c-14.526,0-28.412,7.738-36.228,20.191
		c-10.492,16.71-5.907,34.292-0.208,46.089c2.54,5.268,5.898,10.536,9.948,15.794l65.02-69.647
		C127.716,133.113,118.32,129.036,112.197,127.223z" style="fill: rgb(217, 119, 6);"></path>
</g>
</svg>
